<svg xmlns="http://www.w3.org/2000/svg" viewBox="0 0 1000 1000" width="512" height="512">
<rect width="1000" height="1000" rx="220" fill="#10140E"/>
<path fill="#2A3122" d="M778.142944,789.520386 C773.441162,793.127380 768.969055,797.092102 763.999573,800.282043 C736.307312,818.057495 707.343384,833.406616 675.572021,842.454956 C661.772583,846.384949 647.450439,848.690796 633.237000,850.910339 C606.756775,855.045532 581.487671,848.345215 556.330872,841.241272 C537.232788,835.848206 518.655518,829.062744 501.021515,819.942322 C481.622406,809.908936 463.350586,798.050476 447.066528,783.455139 C434.193359,771.916809 421.139313,760.428284 409.495300,747.701111 C382.252716,717.924316 359.015320,685.319824 347.075256,646.174316 C339.329041,620.778503 332.683044,595.031433 326.102631,569.298828 C310.843445,509.627747 296.229675,449.789703 280.618439,390.212128 C277.320496,377.626282 271.242218,365.697906 265.808899,353.756012 C249.460617,317.824280 231.063965,282.950775 210.146912,249.458008 C195.445663,225.918106 179.624023,203.183319 161.632217,181.953384 C146.070145,163.590515 129.258286,146.695694 109.029526,133.533249 C102.106316,129.028458 94.562759,125.477043 86.031654,120.792076 C92.754494,121.314644 98.368355,121.458702 103.894234,122.231674 C126.515327,125.395966 149.139450,128.561569 171.704453,132.096893 C190.352722,135.018570 208.951401,138.287521 227.514938,141.712173 C256.190765,147.002350 284.878601,152.259247 313.446808,158.091263 C337.164368,162.933044 360.806488,168.217728 384.317017,173.979523 C407.525238,179.667236 430.910126,185.051178 453.535339,192.610260 C495.633118,206.675095 537.446899,221.666534 578.936584,237.435989 C594.854919,243.486237 609.876709,252.168320 624.755859,260.621277 C653.370483,276.877380 681.757019,293.553802 709.877136,310.649719 C718.440552,315.855896 726.269409,322.524902 733.647034,329.372528 C747.919006,342.619141 761.769653,356.330566 775.536926,370.107117 C789.385864,383.965302 800.044312,400.323547 809.860901,417.087646 C825.317505,443.483551 840.553223,470.046204 854.672363,497.168213 C859.866699,507.146271 862.381592,518.748962 864.794556,529.897156 C869.723083,552.667603 872.118347,575.828674 870.897827,599.136597 C869.168518,632.160339 864.291565,664.773071 848.868835,694.447083 C841.814148,708.020691 831.690735,720.036194 822.633362,732.522095 C812.790039,746.091370 802.581360,759.395935 792.482117,772.778320 C791.814819,773.662598 790.724915,774.227905 789.267944,774.690247 C783.903503,764.240417 779.270935,753.958252 774.247437,743.870789 C770.398682,736.142151 766.111267,728.628845 761.919128,721.075256 C757.019043,712.246216 751.927368,703.522278 747.135864,694.635620 C746.390259,693.252625 746.238037,691.048645 746.762329,689.559082 C752.282471,673.877136 757.411133,658.020142 763.788513,642.685852 C774.183350,617.691711 786.094299,593.316101 796.097900,568.175171 C803.732300,548.988586 811.589722,529.668823 814.419983,508.944641 C815.402893,501.747589 815.773254,494.445526 816.031738,487.177521 C816.247559,481.107391 816.043579,475.008118 815.690247,468.941254 C815.592651,467.264862 814.296387,465.658264 813.550110,464.019623 C813.110779,464.110657 812.671448,464.201721 812.232117,464.292755 C811.176331,473.220520 809.991455,482.135284 809.091797,491.078766 C807.259766,509.292114 803.025696,526.946716 796.464417,543.987305 C793.914307,550.610352 790.213806,556.786255 787.110474,563.201111 C777.630249,582.797852 768.325928,602.481140 758.679565,621.995361 C751.754028,636.005554 743.425659,649.402161 740.582153,665.098999 C740.008301,668.266602 739.888062,671.516357 739.550293,674.809692 C734.615173,674.435974 732.588501,671.417236 730.893127,667.773926 C729.082886,663.883972 727.271057,659.937195 724.931763,656.360718 C713.540955,638.945618 701.740051,621.795044 690.539734,604.259949 C681.035156,589.379700 672.083862,574.172607 659.375916,561.632507 C653.899292,556.228210 651.032288,549.584106 652.049683,541.724609 C653.130127,533.378723 653.492493,524.800842 655.755554,516.771606 C664.668335,485.148834 674.593750,453.809082 683.324646,422.138580 C686.952454,408.979034 689.689453,395.338806 690.691589,381.759216 C691.623413,369.133606 690.090210,356.262085 688.894043,343.569336 C688.260620,336.848022 686.035034,330.276764 684.528198,323.637756 C684.051331,323.738739 683.574463,323.839722 683.097595,323.940674 C683.097595,325.584412 682.969543,327.239716 683.117004,328.870087 C685.053772,350.279022 684.442932,371.565399 680.576172,392.758728 C676.144104,417.050659 666.838257,439.775635 658.914734,462.990692 C652.875061,480.686157 648.601624,499.005829 644.051025,517.175171 C642.682068,522.641235 643.019226,528.534546 642.466736,535.616455 C639.098083,532.552734 635.878723,530.563782 633.940979,527.705688 C623.549316,512.378723 611.875610,498.162811 599.310791,484.553009 C585.993713,470.128387 573.472168,454.971222 560.517639,440.209137 C555.702454,434.722046 550.566772,429.516174 545.750366,424.030060 C544.496460,422.601776 543.245239,420.653687 543.102173,418.856079 C542.444092,410.588287 542.070190,402.292725 541.799988,394.000458 C541.464722,383.712372 540.740479,373.388306 541.250671,363.132812 C542.014282,347.783447 544.238708,332.500244 544.814209,317.150360 C545.184631,307.272522 544.530090,297.185791 542.863464,287.444397 C540.688171,274.729950 537.145203,262.242065 533.941406,249.720474 C533.543091,248.163589 531.622131,246.996307 530.406677,245.648499 C530.022034,245.977386 529.637451,246.306259 529.252808,246.635147 C529.581238,247.877762 529.736023,249.200027 530.264099,250.351074 C538.405640,268.097260 535.939453,286.942902 535.708923,305.475677 C535.602478,314.036926 533.925537,322.574402 533.044250,331.131287 C532.011353,341.160706 530.713989,351.181580 530.207275,361.240234 C529.841736,368.496857 530.487244,375.813812 530.852112,383.095337 C531.277161,391.579041 531.887695,400.053467 532.417786,408.531921 C531.666931,408.862732 530.916077,409.193512 530.165222,409.524292 C523.423035,402.816711 516.679688,396.110321 509.938965,389.401245 C496.747192,376.271515 483.968109,362.691010 470.250610,350.135712 C456.462494,337.515869 441.897400,325.722534 427.358765,313.955017 C420.612518,308.494659 412.930664,304.202972 406.035553,298.909210 C401.414673,295.361572 395.223969,291.718109 393.598358,286.832336 C389.578522,274.750610 388.182556,261.963654 392.094788,249.195892 C393.243988,245.445465 393.838898,241.402924 393.938599,237.475250 C394.292694,223.529419 388.611237,211.699890 380.358368,200.892410 C380.076782,200.523621 379.390381,200.463928 378.578064,200.131409 C384.079010,216.625412 382.094360,228.072098 380.282715,242.312332 C379.277649,250.212692 378.500458,258.163788 378.148804,266.115387 C377.996826,269.552429 379.179871,273.048492 380.023468,278.124237 C313.963257,228.870636 245.777939,186.438446 170.100082,157.174149 C182.363037,164.705261 194.941010,171.682480 207.442657,178.793884 C226.864807,189.841904 246.398514,200.707382 265.580475,212.160172 C284.157288,223.251678 302.477661,234.788528 320.661346,246.516373 C331.045807,253.213959 342.100891,258.885284 350.922821,268.044281 C355.872437,273.182983 362.612457,276.588562 368.486298,280.856812 C369.201477,281.376465 369.546143,282.406006 370.513031,283.891327 C365.682251,283.891327 361.857239,284.101196 358.062592,283.850922 C347.754272,283.171051 337.820007,285.120148 328.207642,288.428650 C316.599396,292.424194 304.793365,294.585327 292.536774,294.017456 C284.629669,293.651093 276.733215,293.054779 268.281891,292.527191 C272.545135,297.401398 278.101532,299.352417 283.760651,300.925262 C296.568176,304.484863 309.336945,302.792877 322.129486,300.486053 C337.607147,297.695007 352.851898,293.972015 368.837219,293.716248 C382.583984,293.496277 393.216339,298.731049 402.829773,307.400635 C421.430298,324.174957 439.963684,341.024750 458.421814,357.955627 C472.983612,371.312561 487.455048,384.769928 501.832977,398.324432 C507.032684,403.226410 511.947174,408.446533 516.758301,413.733917 C517.932129,415.023926 518.184998,417.151855 518.861328,418.894531 C516.861877,419.103760 514.784302,419.773071 512.875305,419.449127 C498.101440,416.942200 483.720306,411.715393 468.247742,414.864716 C451.018066,418.371704 433.453949,420.396729 416.402252,424.566803 C402.227600,428.033295 388.274902,431.691254 373.564636,431.988037 C356.723114,432.327789 340.153778,431.366730 324.220551,425.234436 C322.902466,424.727173 321.219696,425.167419 318.306061,425.167419 C320.258179,426.426971 320.857300,427.036804 321.572021,427.240143 C328.685303,429.263947 335.853638,431.100555 342.937653,433.219818 C361.270477,438.704315 379.895813,440.565002 398.900970,438.019684 C414.948090,435.870514 430.971283,433.533905 447.035706,431.525146 C463.282684,429.493622 479.538818,426.571289 495.842133,426.181519 C519.908325,425.606262 539.565002,436.482971 555.185608,454.381134 C565.902161,466.660278 575.945496,479.525940 586.335022,492.092010 C593.119568,500.297913 600.154419,508.302521 606.769836,516.641113 C614.313354,526.149536 621.570129,535.888000 628.810547,545.631287 C629.990723,547.219299 630.442078,549.348877 631.506226,551.886047 C607.390137,547.070496 584.597412,546.529602 562.287720,553.351501 C542.844910,559.296753 523.654724,566.145142 504.594025,573.242065 C484.468872,580.735535 464.886475,589.746277 444.590393,596.704163 C425.276672,603.325317 404.911041,605.846680 384.544281,606.774841 C377.097931,607.114197 369.538361,604.970398 361.872498,603.695801 C361.034882,603.354736 360.355194,603.277405 359.675537,603.200012 C359.649841,603.406921 359.624146,603.613831 359.598450,603.820679 C360.350739,603.940674 361.103058,604.060669 361.903168,604.544556 C364.315582,605.930542 366.596283,607.504150 369.059418,607.878784 C379.333160,609.441772 389.629364,611.112976 399.980652,611.828308 C408.063904,612.386963 416.462585,612.737305 424.337677,611.207031 C460.682434,604.144409 495.567841,591.996948 529.641357,577.857056 C557.704529,566.211365 586.514404,560.377686 616.755066,561.036316 C620.887512,561.126343 625.006287,561.804199 629.139343,561.915100 C639.092896,562.182190 646.180664,566.242310 651.385437,575.212036 C657.897583,586.434753 665.615601,596.972534 673.057556,607.635376 C677.528748,614.041748 682.926331,619.830261 687.107117,626.405396 C699.232971,645.475708 710.973572,664.791443 722.777588,684.064636 C723.351929,685.002441 723.593811,686.774536 723.080383,687.573059 C722.550232,688.397827 720.870056,688.943665 719.759399,688.847107 C716.647522,688.576599 713.584473,687.605591 710.476318,687.458496 C700.207397,686.972656 689.593384,684.940491 679.724060,686.782104 C661.968384,690.095459 644.193176,694.529480 627.263123,700.767273 C598.679016,711.298889 570.749207,723.606018 542.541382,735.159546 C522.584961,743.333313 502.057037,748.699585 480.262177,748.157410 C471.937775,747.950317 463.604004,748.099731 455.274658,748.133484 C453.933197,748.138916 452.592743,748.390015 451.251801,748.527527 C451.188263,748.957214 451.124695,749.386963 451.061127,749.816650 C452.620056,750.523376 454.142639,751.742493 455.743622,751.855896 C468.911377,752.788757 482.000702,755.461670 495.316345,753.083984 C508.810394,750.674500 522.694946,749.840271 535.840576,746.241699 C553.344116,741.450134 570.280518,734.599915 587.494385,728.733093 C602.564758,723.596802 617.783142,718.878174 632.755798,713.475159 C658.665527,704.125549 684.620605,695.648193 712.847351,698.852234 C726.145874,700.361877 737.141479,704.414062 743.127991,717.876770 C748.322266,729.557922 754.890076,740.620361 760.527466,752.114746 C766.595520,764.487061 772.287109,777.044006 778.142944,789.520386 z"/>
<path fill="#4E9E6E" d="M778.420105,789.770081 C772.287109,777.044006 766.595520,764.487061 760.527466,752.114746 C754.890076,740.620361 748.322266,729.557922 743.127991,717.876770 C737.141479,704.414062 726.145874,700.361877 712.847351,698.852234 C684.620605,695.648193 658.665527,704.125549 632.755798,713.475159 C617.783142,718.878174 602.564758,723.596802 587.494385,728.733093 C570.280518,734.599915 553.344116,741.450134 535.840576,746.241699 C522.694946,749.840271 508.810394,750.674500 495.316345,753.083984 C482.000702,755.461670 468.911377,752.788757 455.743622,751.855896 C454.142639,751.742493 452.620056,750.523376 451.061127,749.816650 C451.124695,749.386963 451.188263,748.957214 451.251801,748.527527 C452.592743,748.390015 453.933197,748.138916 455.274658,748.133484 C463.604004,748.099731 471.937775,747.950317 480.262177,748.157410 C502.057037,748.699585 522.584961,743.333313 542.541382,735.159546 C570.749207,723.606018 598.679016,711.298889 627.263123,700.767273 C644.193176,694.529480 661.968384,690.095459 679.724060,686.782104 C689.593384,684.940491 700.207397,686.972656 710.476318,687.458496 C713.584473,687.605591 716.647522,688.576599 719.759399,688.847107 C720.870056,688.943665 722.550232,688.397827 723.080383,687.573059 C723.593811,686.774536 723.351929,685.002441 722.777588,684.064636 C710.973572,664.791443 699.232971,645.475708 687.107117,626.405396 C682.926331,619.830261 677.528748,614.041748 673.057556,607.635376 C665.615601,596.972534 657.897583,586.434753 651.385437,575.212036 C646.180664,566.242310 639.092896,562.182190 629.139343,561.915100 C625.006287,561.804199 620.887512,561.126343 616.755066,561.036316 C586.514404,560.377686 557.704529,566.211365 529.641357,577.857056 C495.567841,591.996948 460.682434,604.144409 424.337677,611.207031 C416.462585,612.737305 408.063904,612.386963 399.980652,611.828308 C389.629364,611.112976 379.333160,609.441772 369.059418,607.878784 C366.596283,607.504150 364.315582,605.930542 361.946472,604.488892 C361.942017,604.069336 362.030457,603.959412 362.030457,603.959412 C369.538361,604.970398 377.097931,607.114197 384.544281,606.774841 C404.911041,605.846680 425.276672,603.325317 444.590393,596.704163 C464.886475,589.746277 484.468872,580.735535 504.594025,573.242065 C523.654724,566.145142 542.844910,559.296753 562.287720,553.351501 C584.597412,546.529602 607.390137,547.070496 631.506226,551.886047 C630.442078,549.348877 629.990723,547.219299 628.810547,545.631287 C621.570129,535.888000 614.313354,526.149536 606.769836,516.641113 C600.154419,508.302521 593.119568,500.297913 586.335022,492.092010 C575.945496,479.525940 565.902161,466.660278 555.185608,454.381134 C539.565002,436.482971 519.908325,425.606262 495.842133,426.181519 C479.538818,426.571289 463.282684,429.493622 447.035706,431.525146 C430.971283,433.533905 414.948090,435.870514 398.900970,438.019684 C379.895813,440.565002 361.270477,438.704315 342.937653,433.219818 C335.853638,431.100555 328.685303,429.263947 321.572021,427.240143 C320.857300,427.036804 320.258179,426.426971 318.306061,425.167419 C321.219696,425.167419 322.902466,424.727173 324.220551,425.234436 C340.153778,431.366730 356.723114,432.327789 373.564636,431.988037 C388.274902,431.691254 402.227600,428.033295 416.402252,424.566803 C433.453949,420.396729 451.018066,418.371704 468.247742,414.864716 C483.720306,411.715393 498.101440,416.942200 512.875305,419.449127 C514.784302,419.773071 516.861877,419.103760 518.861328,418.894531 C518.184998,417.151855 517.932129,415.023926 516.758301,413.733917 C511.947174,408.446533 507.032684,403.226410 501.832977,398.324432 C487.455048,384.769928 472.983612,371.312561 458.421814,357.955627 C439.963684,341.024750 421.430298,324.174957 402.829773,307.400635 C393.216339,298.731049 382.583984,293.496277 368.837219,293.716248 C352.851898,293.972015 337.607147,297.695007 322.129486,300.486053 C309.336945,302.792877 296.568176,304.484863 283.760651,300.925262 C278.101532,299.352417 272.545135,297.401398 268.281891,292.527191 C276.733215,293.054779 284.629669,293.651093 292.536774,294.017456 C304.793365,294.585327 316.599396,292.424194 328.207642,288.428650 C337.820007,285.120148 347.754272,283.171051 358.062592,283.850922 C361.857239,284.101196 365.682251,283.891327 370.513031,283.891327 C369.546143,282.406006 369.201477,281.376465 368.486298,280.856812 C362.612457,276.588562 355.872437,273.182983 350.922821,268.044281 C342.100891,258.885284 331.045807,253.213959 320.661346,246.516373 C302.477661,234.788528 284.157288,223.251678 265.580475,212.160172 C246.398514,200.707382 226.864807,189.841904 207.442657,178.793884 C194.941010,171.682480 182.363037,164.705261 170.100082,157.174149 C245.777939,186.438446 313.963257,228.870636 380.023468,278.124237 C379.179871,273.048492 377.996826,269.552429 378.148804,266.115387 C378.500458,258.163788 379.277649,250.212692 380.282715,242.312332 C382.094360,228.072098 384.079010,216.625412 378.578064,200.131409 C379.390381,200.463928 380.076782,200.523621 380.358368,200.892410 C388.611237,211.699890 394.292694,223.529419 393.938599,237.475250 C393.838898,241.402924 393.243988,245.445465 392.094788,249.195892 C388.182556,261.963654 389.578522,274.750610 393.598358,286.832336 C395.223969,291.718109 401.414673,295.361572 406.035553,298.909210 C412.930664,304.202972 420.612518,308.494659 427.358765,313.955017 C441.897400,325.722534 456.462494,337.515869 470.250610,350.135712 C483.968109,362.691010 496.747192,376.271515 509.938965,389.401245 C516.679688,396.110321 523.423035,402.816711 530.165222,409.524292 C530.916077,409.193512 531.666931,408.862732 532.417786,408.531921 C531.887695,400.053467 531.277161,391.579041 530.852112,383.095337 C530.487244,375.813812 529.841736,368.496857 530.207275,361.240234 C530.713989,351.181580 532.011353,341.160706 533.044250,331.131287 C533.925537,322.574402 535.602478,314.036926 535.708923,305.475677 C535.939453,286.942902 538.405640,268.097260 530.264099,250.351074 C529.736023,249.200027 529.581238,247.877762 529.252808,246.635147 C529.637451,246.306259 530.022034,245.977386 530.406677,245.648499 C531.622131,246.996307 533.543091,248.163589 533.941406,249.720474 C537.145203,262.242065 540.688171,274.729950 542.863464,287.444397 C544.530090,297.185791 545.184631,307.272522 544.814209,317.150360 C544.238708,332.500244 542.014282,347.783447 541.250671,363.132812 C540.740479,373.388306 541.464722,383.712372 541.799988,394.000458 C542.070190,402.292725 542.444092,410.588287 543.102173,418.856079 C543.245239,420.653687 544.496460,422.601776 545.750366,424.030060 C550.566772,429.516174 555.702454,434.722046 560.517639,440.209137 C573.472168,454.971222 585.993713,470.128387 599.310791,484.553009 C611.875610,498.162811 623.549316,512.378723 633.940979,527.705688 C635.878723,530.563782 639.098083,532.552734 642.466736,535.616455 C643.019226,528.534546 642.682068,522.641235 644.051025,517.175171 C648.601624,499.005829 652.875061,480.686157 658.914734,462.990692 C666.838257,439.775635 676.144104,417.050659 680.576172,392.758728 C684.442932,371.565399 685.053772,350.279022 683.117004,328.870087 C682.969543,327.239716 683.097595,325.584412 683.097595,323.940674 C683.574463,323.839722 684.051331,323.738739 684.528198,323.637756 C686.035034,330.276764 688.260620,336.848022 688.894043,343.569336 C690.090210,356.262085 691.623413,369.133606 690.691589,381.759216 C689.689453,395.338806 686.952454,408.979034 683.324646,422.138580 C674.593750,453.809082 664.668335,485.148834 655.755554,516.771606 C653.492493,524.800842 653.130127,533.378723 652.049683,541.724609 C651.032288,549.584106 653.899292,556.228210 659.375916,561.632507 C672.083862,574.172607 681.035156,589.379700 690.539734,604.259949 C701.740051,621.795044 713.540955,638.945618 724.931763,656.360718 C727.271057,659.937195 729.082886,663.883972 730.893127,667.773926 C732.588501,671.417236 734.615173,674.435974 739.550293,674.809692 C739.888062,671.516357 740.008301,668.266602 740.582153,665.098999 C743.425659,649.402161 751.754028,636.005554 758.679565,621.995361 C768.325928,602.481140 777.630249,582.797852 787.110474,563.201111 C790.213806,556.786255 793.914307,550.610352 796.464417,543.987305 C803.025696,526.946716 807.259766,509.292114 809.091797,491.078766 C809.991455,482.135284 811.176331,473.220520 812.232117,464.292755 C812.671448,464.201721 813.110779,464.110657 813.550110,464.019623 C814.296387,465.658264 815.592651,467.264862 815.690247,468.941254 C816.043579,475.008118 816.247559,481.107391 816.031738,487.177521 C815.773254,494.445526 815.402893,501.747589 814.419983,508.944641 C811.589722,529.668823 803.732300,548.988586 796.097900,568.175171 C786.094299,593.316101 774.183350,617.691711 763.788513,642.685852 C757.411133,658.020142 752.282471,673.877136 746.762329,689.559082 C746.238037,691.048645 746.390259,693.252625 747.135864,694.635620 C751.927368,703.522278 757.019043,712.246216 761.919128,721.075256 C766.111267,728.628845 770.398682,736.142151 774.247437,743.870789 C779.270935,753.958252 783.903503,764.240417 788.931152,774.741211 C789.691956,776.601379 789.956055,778.325989 790.800720,779.691528 C801.648010,797.227173 806.493835,817.104248 813.111755,836.301392 C818.444031,851.769104 824.035034,867.149597 829.679504,882.506958 C832.280273,889.583008 837.186218,894.288025 844.548706,896.761963 C851.065369,898.951782 852.365051,903.759583 848.773132,909.756592 C844.097717,917.562683 836.592041,921.396057 828.299622,923.817993 C823.932312,925.093506 819.326721,925.553528 814.161804,926.504517 C815.449036,877.009766 797.560120,833.385498 778.420105,789.770081 z"/>
<path fill="#4E9E6E" d="M361.898682,604.125000 C361.103058,604.060669 360.350739,603.940674 359.598450,603.820679 C359.624146,603.613831 359.649841,603.406921 359.675537,603.200012 C360.355194,603.277405 361.034882,603.354736 361.872498,603.695801 C362.030457,603.959412 361.942017,604.069336 361.898682,604.125000 z"/>
</svg>